<svg viewBox="0 0 64 64" xmlns="http://www.w3.org/2000/svg"><g fill="none" fill-rule="evenodd"><path d="M58.514 0A5.486 5.486 0 0 1 64 5.486v53.028A5.486 5.486 0 0 1 58.514 64H5.486A5.486 5.486 0 0 1 0 58.514V5.486A5.486 5.486 0 0 1 5.486 0h53.028z" fill="#FFF"></path><path d="m61.09 5.471-.017-.034c-.348-1.2-1.39-2.225-2.624-2.573h-.035c-.33-.104-.73-.121-1.095-.121H6.71c-.314 0-.679.017-.974.087h-.035c-1.599.33-2.885 1.877-2.954 3.493v21.254c0 9.767.017 19.864 0 29.805v.069c-.053.921.33 1.86 1.025 2.607.695.747 1.616 1.182 2.537 1.2H57.32c.278 0 .643-.018.973-.088 1.703-.4 3.042-2.085 2.955-3.753V8.026c-.018-.243 0-.487 0-.713.017-.66.034-1.303-.14-1.807l-.017-.035z" fill="#EC1D25"></path><path d="M52.325 36.204c0-1.651-.11-2.722-.327-3.23-.218-.49-.617-.743-1.18-.743-.561 0-.96.29-1.197.852-.217.563-.344 1.597-.344 3.12v4.463c0 1.651.109 2.721.326 3.229.218.49.617.744 1.198.744.562 0 .943-.272 1.179-.816.218-.545.345-1.597.345-3.157v-4.462zm6.53-12.935v.345h-6.512v-.345c0-1.65-.11-2.72-.327-3.229-.217-.49-.617-.743-1.179-.743s-.962.29-1.197.852c-.218.562-.345 1.615-.345 3.12v6.513c.562-.744 1.216-1.306 1.923-1.67.707-.362 1.542-.543 2.467-.543 1.796 0 3.12.58 3.955 1.723.835 1.143 1.252 2.993 1.252 5.515v3.465c0 3.918-.599 6.62-1.778 8.108-1.18 1.488-3.265 2.232-6.259 2.232-3.011 0-5.098-.744-6.277-2.213C43.4 44.91 42.8 42.208 42.8 38.272V25.664c0-3.918.599-6.621 1.778-8.09 1.18-1.47 3.266-2.214 6.277-2.214 3.03 0 5.116.562 6.259 1.687 1.161 1.125 1.742 3.193 1.742 6.222zM32.115 15.886h5.46v32.181h-6.222V24.14a10.243 10.243 0 0 1-1.76 1.451c-.635.4-1.324.744-2.068 1.016v-5.769c1.107-.635 2.05-1.36 2.83-2.195.762-.834 1.36-1.741 1.76-2.757M15.86 16.213H9.547L5.12 48.303h8.835l.49-5.86h2.794l.49 5.86h8.853l-4.409-32.09H15.86zm0 7.42 1.487 13.17h-2.975l1.488-13.17z" fill="#FFF"></path></g></svg>