<?xml version="1.0" encoding="UTF-8"?>
<svg id="Camada_1" data-name="Camada 1" xmlns="http://www.w3.org/2000/svg" viewBox="0 0 1044.07 759.29">
  <defs>
    <style>
      .cls-1 {
        fill: #00a19a;
      }

      .cls-1, .cls-2, .cls-3 {
        stroke: #1d1d1b;
        stroke-miterlimit: 10;
      }

      .cls-2 {
        fill: #2d2e83;
      }

      .cls-3 {
        fill: #29235c;
      }

      .cls-4 {
        fill: #d60b52;
      }

      .cls-5 {
        fill: #a3195b;
      }
    </style>
  </defs>
  <rect class="cls-5" y="1.16" width="122.03" height="757.63" rx="45.76" ry="45.76"/>
  <rect class="cls-4" x="152.07" y="484.69" width="122.03" height="426.17" rx="45.76" ry="45.76" transform="translate(910.85 484.69) rotate(90)"/>
  <rect class="cls-1" x="467.8" y="1.16" width="122.03" height="757.63" rx="45.76" ry="45.76"/>
  <rect class="cls-2" x="566.59" y="-97.64" width="122.03" height="319.62" rx="45.76" ry="45.76" transform="translate(689.79 -565.43) rotate(90)"/>
  <path class="cls-2" d="m467.8,337.6v-30.51c0-25.27,20.49-45.76,45.76-45.76h228.1c25.27,0,45.76,20.49,45.76,45.76v30.51c-7.03,9.35-14.14,15.25-19.07,18.78-10.32,7.38-19.68,10.55-37.09,16.44-11.66,3.95-20.37,5.97-23.52,6.67-8.63,1.93-16.4,3.12-23,3.87-8.99,4.38-84.38,0-171.19,0-25.27,0-45.76-20.49-45.76-45.76Z"/>
  <path class="cls-3" d="m909.32,186.33c-2.79,135.86-231.82,203.91-239.01,193.72-3.66-5.19,45.8-37.06,86.59-113.53,14.86-27.85,21.34-48.05,22.4-70.15,1.37-28.41-6.72-49.34-17.56-76.53-25.8-64.67-64.4-112.03-56.66-118.69.84-.72,5.05-.69,13.49-.63,5.24.04,8.04.3,15.11.63,8.31.39,14.23.48,14.74.5,13.31.43,163.17,73.89,160.9,184.67Z"/>
</svg>